<svg xmlns="http://www.w3.org/2000/svg" width="104" height="32" fill="none"><g clip-path="url(#a)"><path fill="#FF385C" d="M30.026 22.68c-.162-.39-.313-.8-.474-1.15l-.748-1.67-.03-.03c-2.222-4.8-4.595-9.68-7.11-14.48l-.1-.2c-.253-.47-.505-.99-.767-1.47-.324-.57-.637-1.18-1.152-1.76a5.345 5.345 0 0 0-1.85-1.432 5.396 5.396 0 0 0-4.58 0 5.345 5.345 0 0 0-1.85 1.431c-.475.58-.828 1.19-1.151 1.76-.253.52-.505 1.03-.768 1.5l-.1.2c-2.475 4.8-4.888 9.68-7.11 14.48l-.06.06c-.222.52-.485 1.06-.737 1.64-.162.35-.324.73-.485 1.15a6.739 6.739 0 0 0 .977 6.669 6.86 6.86 0 0 0 2.804 2.107 6.93 6.93 0 0 0 3.49.454 8.518 8.518 0 0 0 3.21-1.1c1.313-.73 2.576-1.79 3.99-3.32 1.413 1.53 2.706 2.59 3.988 3.33a8.523 8.523 0 0 0 4.06 1.15 6.896 6.896 0 0 0 4.51-1.651 6.771 6.771 0 0 0 2.306-4.179 5.886 5.886 0 0 0-.263-3.5v.01Zm-14.5 1.66c-1.738-2.2-2.868-4.22-3.252-5.95a5.152 5.152 0 0 1-.101-1.96c.07-.51.262-.96.525-1.34.606-.87 1.666-1.41 2.827-1.41a3.359 3.359 0 0 1 1.592.346c.494.244.918.606 1.236 1.053.262.4.454.84.515 1.35.1.58.06 1.25-.101 1.96-.384 1.7-1.515 3.74-3.242 5.95Zm12.864 1.48a4.735 4.735 0 0 1-.96 2.26 4.801 4.801 0 0 1-1.968 1.49c-.768.32-1.616.41-2.444.32a6.365 6.365 0 0 1-2.444-.84 15.754 15.754 0 0 1-3.665-3.1c2.12-2.6 3.403-4.97 3.888-7.08.232-1 .262-1.9.161-2.73a5.499 5.499 0 0 0-.868-2.2 5.398 5.398 0 0 0-1.98-1.7 5.456 5.456 0 0 0-2.554-.58c-1.868 0-3.535.86-4.544 2.27a5.15 5.15 0 0 0-.859 2.21 6.52 6.52 0 0 0 .162 2.73c.484 2.11 1.797 4.51 3.888 7.1a14.432 14.432 0 0 1-3.666 3.12c-.838.48-1.636.73-2.444.83a4.841 4.841 0 0 1-3.531-.942A4.75 4.75 0 0 1 2.72 25.85c-.101-.8-.03-1.6.293-2.5.1-.32.252-.64.414-1.02.222-.52.485-1.06.737-1.6l.04-.07c2.182-4.77 4.565-9.64 7.039-14.41l.1-.2c.253-.48.506-.99.768-1.47.263-.51.546-1 .909-1.4a3.35 3.35 0 0 1 1.152-.876 3.38 3.38 0 0 1 3.988.876c.353.4.646.89.909 1.4.252.48.505 1 .767 1.47l.101.2c2.464 4.77 4.847 9.64 7.069 14.41l.03.03c.263.52.485 1.1.737 1.6.162.39.323.7.424 1.03.192.9.293 1.7.192 2.5Zm14.057-1.7a5.112 5.112 0 0 1-2.205-.465 5.063 5.063 0 0 1-1.784-1.366 6.511 6.511 0 0 1-1.616-4.48 6.92 6.92 0 0 1 1.677-4.58 5.347 5.347 0 0 1 1.851-1.382 5.396 5.396 0 0 1 2.269-.478 4.377 4.377 0 0 1 2.118.482c.654.336 1.21.83 1.618 1.438l.1-1.57h2.95V23.8h-2.96l-.1-1.76c-.42.649-1 1.18-1.686 1.544a4.6 4.6 0 0 1-2.232.536Zm.767-2.88c.586 0 1.1-.16 1.586-.45.444-.32.807-.74 1.09-1.25.253-.51.384-1.12.384-1.8a3.391 3.391 0 0 0-.337-1.715 3.43 3.43 0 0 0-1.148-1.326 3 3 0 0 0-3.15 0c-.445.32-.808.74-1.09 1.25a3.976 3.976 0 0 0-.385 1.8c-.039.59.077 1.181.337 1.714.26.533.656.99 1.148 1.326.474.29.99.45 1.565.45Zm11.26-12.78c0 .35-.061.67-.223.93-.161.25-.383.48-.676.64-.293.16-.606.22-.93.22-.322 0-.646-.06-.938-.22a1.85 1.85 0 0 1-.677-.64 1.805 1.805 0 0 1-.222-.93c0-.36.07-.68.222-.93.162-.3.394-.48.677-.64.292-.16.605-.23.939-.23a1.851 1.851 0 0 1 1.616.86c.146.29.22.613.211.94Zm-3.434 15.3V11.7h3.211v12.08H51.03l.01-.02Zm11.795-8.9v.04c-.152-.07-.354-.1-.505-.13-.202-.04-.364-.04-.556-.04-.898 0-1.575.26-2.02.8-.484.55-.706 1.32-.706 2.31v5.93h-3.221V11.69h2.958l.101 1.83c.323-.64.707-1.12 1.252-1.48a3.153 3.153 0 0 1 1.828-.5c.232 0 .455.02.646.06.101.03.162.03.223.06v3.2Zm1.292 8.9V6.74h3.211v6.5c.455-.58.97-1.03 1.616-1.38a5.114 5.114 0 0 1 3.3-.4 5.078 5.078 0 0 1 2.84 1.71 6.511 6.511 0 0 1 1.615 4.49 6.92 6.92 0 0 1-1.676 4.58 5.347 5.347 0 0 1-1.852 1.382 5.396 5.396 0 0 1-2.268.477 4.376 4.376 0 0 1-2.119-.482 4.327 4.327 0 0 1-1.617-1.438l-.101 1.57-2.949.03v-.02Zm6.21-2.52c.576 0 1.091-.16 1.576-.45.444-.32.808-.74 1.09-1.25.263-.51.384-1.12.384-1.8 0-.67-.121-1.28-.384-1.79a3.76 3.76 0 0 0-1.09-1.25 3.001 3.001 0 0 0-3.15 0c-.455.32-.809.74-1.102 1.25a3.978 3.978 0 0 0-.383 1.8c-.04.59.076 1.18.337 1.713.26.533.655.99 1.147 1.326.475.29.99.45 1.576.45Zm7.584 2.53V11.69h2.959l.1 1.57c.373-.603.9-1.095 1.528-1.427a4.03 4.03 0 0 1 2.047-.464 4.17 4.17 0 0 1 2.3.644 4.112 4.112 0 0 1 1.558 1.796c.353.76.545 1.7.545 2.75v7.24h-3.221v-6.82c0-.84-.192-1.5-.576-1.99-.383-.48-.908-.74-1.575-.74-.485 0-.909.1-1.282.32-.354.23-.647.52-.869.93-.224.415-.336.88-.323 1.35v6.92h-3.19Zm12.643 0V6.73h3.221v6.5a4.704 4.704 0 0 1 1.658-1.387 4.753 4.753 0 0 1 2.109-.504 5.112 5.112 0 0 1 2.205.465c.69.317 1.3.783 1.783 1.365a6.528 6.528 0 0 1 1.606 4.48 6.909 6.909 0 0 1-1.676 4.58 5.35 5.35 0 0 1-1.852 1.383 5.396 5.396 0 0 1-2.268.477 4.376 4.376 0 0 1-2.12-.481 4.327 4.327 0 0 1-1.617-1.439l-.09 1.57-2.96.03Zm6.24-2.53c.586 0 1.101-.16 1.576-.45.454-.32.808-.74 1.1-1.25.253-.51.384-1.12.384-1.8a3.391 3.391 0 0 0-.337-1.715A3.43 3.43 0 0 0 98.38 14.7a3 3 0 0 0-3.15 0c-.445.32-.809.74-1.091 1.25a3.6 3.6 0 0 0-.384 1.8c-.04.59.077 1.181.337 1.714.26.533.655.99 1.147 1.326.475.29.96.45 1.565.45Z"/></g><defs><clipPath id="a"><path fill="#fff" d="M0 0h104v32H0z"/></clipPath></defs></svg>