<svg xmlns="http://www.w3.org/2000/svg" width="104" height="32" fill="none"><path fill="#F90" fill-rule="evenodd" d="M64.4 25.025C58.413 29.573 49.737 32 42.267 32c-10.473 0-19.902-3.994-27.035-10.636-.56-.522-.059-1.234.614-.827 7.698 4.617 17.217 7.395 27.05 7.395 6.63 0 13.925-1.414 20.632-4.35 1.014-.443 1.861.685.87 1.443Z" clip-rule="evenodd"/><path fill="#F90" fill-rule="evenodd" d="M66.888 22.09c-.763-1.008-5.058-.476-6.986-.24-.587.073-.677-.454-.148-.833 3.421-2.482 9.035-1.765 9.69-.933.654.836-.171 6.637-3.386 9.406-.493.425-.964.199-.744-.365.722-1.858 2.34-6.023 1.574-7.035Z" clip-rule="evenodd"/><path fill="#000" fill-rule="evenodd" d="M60.037 3.494V1.082c0-.366.269-.61.592-.61h10.478c.336 0 .605.249.605.61v2.066c-.005.346-.287.8-.79 1.516l-5.429 7.992c2.018-.051 4.148.259 5.977 1.322.412.24.524.591.556.938v2.575c0 .35-.377.762-.772.55-3.223-1.743-7.505-1.932-11.07.018-.362.204-.744-.203-.744-.555V15.06c0-.393.005-1.063.386-1.66l6.29-9.3h-5.474a.588.588 0 0 1-.605-.605ZM21.815 18.55h-3.188a.61.61 0 0 1-.57-.56V1.123c0-.337.274-.605.615-.605h2.972c.31.014.556.259.579.564v2.205h.058c.776-2.131 2.233-3.125 4.196-3.125 1.996 0 3.242.994 4.139 3.125.77-2.131 2.524-3.125 4.403-3.125 1.336 0 2.797.568 3.69 1.844 1.008 1.42.802 3.48.802 5.288l-.004 10.645a.61.61 0 0 1-.615.61H35.71a.616.616 0 0 1-.574-.61V9c0-.711.063-2.486-.09-3.161-.237-1.132-.95-1.451-1.874-1.451-.77 0-1.578.531-1.905 1.382-.327.85-.296 2.274-.296 3.23v8.94a.61.61 0 0 1-.614.61h-3.184a.613.613 0 0 1-.573-.61L26.594 9c0-1.88.3-4.65-1.964-4.65-2.29 0-2.201 2.7-2.201 4.65v8.94a.61.61 0 0 1-.614.61ZM80.733.162c4.73 0 7.29 4.188 7.29 9.512 0 5.145-2.83 9.227-7.29 9.227-4.645 0-7.174-4.188-7.174-9.407 0-5.25 2.56-9.332 7.174-9.332Zm.026 3.443c-2.349 0-2.497 3.3-2.497 5.358 0 2.061-.031 6.462 2.47 6.462 2.47 0 2.588-3.55 2.588-5.714 0-1.423-.059-3.124-.476-4.474-.358-1.174-1.071-1.632-2.085-1.632ZM94.156 18.55h-3.174a.616.616 0 0 1-.574-.61l-.004-16.872a.61.61 0 0 1 .614-.55h2.954a.615.615 0 0 1 .57.471v2.58h.058c.892-2.307 2.143-3.407 4.345-3.407 1.43 0 2.824.531 3.721 1.987.834 1.35.834 3.62.834 5.251v10.618a.618.618 0 0 1-.614.531h-3.197a.611.611 0 0 1-.565-.531V8.856c0-1.844.206-4.543-1.995-4.543-.776 0-1.489.536-1.843 1.35-.448 1.03-.507 2.056-.507 3.193v9.083a.622.622 0 0 1-.623.61ZM51.684 10.493c0 1.28.031 2.348-.596 3.485-.507.924-1.314 1.493-2.206 1.493-1.224 0-1.942-.962-1.942-2.38 0-2.802 2.435-3.31 4.744-3.31v.712Zm3.215 8.01a.65.65 0 0 1-.754.078c-1.058-.905-1.25-1.326-1.829-2.19-1.748 1.84-2.99 2.39-5.255 2.39-2.685 0-4.77-1.706-4.77-5.122 0-2.667 1.399-4.484 3.399-5.371 1.73-.786 4.147-.925 5.994-1.142v-.425c0-.781.058-1.706-.39-2.38-.386-.606-1.13-.856-1.789-.856-1.215 0-2.296.643-2.56 1.974-.054.296-.265.587-.556.6l-3.09-.341c-.26-.06-.55-.278-.474-.689C43.533 1.165 46.922 0 49.953 0c1.552 0 3.578.425 4.802 1.636C56.306 3.13 56.16 5.121 56.16 7.29v5.122c0 1.539.618 2.214 1.201 3.046.202.296.247.652-.013.873-.65.56-1.807 1.6-2.444 2.182l-.004-.01ZM9.893 10.493c0 1.28.031 2.348-.596 3.485-.507.924-1.31 1.493-2.206 1.493-1.224 0-1.937-.962-1.937-2.38 0-2.802 2.434-3.31 4.739-3.31v.712Zm3.215 8.01a.65.65 0 0 1-.754.079c-1.058-.906-1.246-1.327-1.829-2.191-1.748 1.84-2.986 2.39-5.255 2.39-2.68 0-4.77-1.706-4.77-5.122 0-2.667 1.403-4.484 3.399-5.371 1.73-.786 4.147-.924 5.994-1.142v-.425c0-.781.058-1.706-.386-2.38-.39-.606-1.134-.856-1.789-.856-1.215 0-2.3.643-2.564 1.974-.054.296-.265.587-.552.601L1.51 5.718c-.26-.06-.547-.277-.475-.689C1.746 1.165 5.13 0 8.162 0c1.552 0 3.578.425 4.802 1.637 1.551 1.493 1.403 3.485 1.403 5.653v5.121c0 1.54.62 2.214 1.202 3.046.206.296.251.652-.009.874-.65.559-1.807 1.599-2.443 2.181l-.01-.009Z" clip-rule="evenodd"/></svg>