<svg xmlns="http://www.w3.org/2000/svg" width="62" height="20" fill="none"><path fill="#072AC8" d="M14.977 17.277a8.561 8.561 0 0 1-2.625 1.547 8.59 8.59 0 0 1-3.012.54 8.405 8.405 0 0 1-2.309-.317 8.823 8.823 0 0 1-2.074-.867 9.024 9.024 0 0 1-1.758-1.371 9.025 9.025 0 0 1-1.37-1.758 9.201 9.201 0 0 1-.88-2.074 8.706 8.706 0 0 1-.304-2.309c0-.797.101-1.566.304-2.309.211-.742.504-1.433.88-2.074a8.869 8.869 0 0 1 1.37-1.77 8.676 8.676 0 0 1 1.758-1.359 8.54 8.54 0 0 1 2.074-.879 8.404 8.404 0 0 1 2.309-.316c1.039 0 2.043.18 3.012.539a8.26 8.26 0 0 1 2.625 1.547l-1.782 2.93a4.967 4.967 0 0 0-1.746-1.22 5.283 5.283 0 0 0-2.11-.433c-.741 0-1.437.14-2.085.422a5.438 5.438 0 0 0-1.7 1.149 5.263 5.263 0 0 0-1.148 1.699 5.156 5.156 0 0 0-.422 2.074c0 .734.141 1.426.422 2.074a5.436 5.436 0 0 0 2.848 2.836A5.184 5.184 0 0 0 9.34 16c.734 0 1.437-.14 2.11-.422a5.101 5.101 0 0 0 1.745-1.23l1.782 2.93ZM20.367 3.04c0 .296-.058.573-.176.831-.109.258-.261.484-.457.68-.195.187-.425.34-.691.457-.258.11-.535.164-.832.164-.297 0-.578-.055-.844-.164a2.416 2.416 0 0 1-.68-.457 2.416 2.416 0 0 1-.457-.68 2.108 2.108 0 0 1-.164-.832c0-.289.055-.562.165-.82a2.126 2.126 0 0 1 1.137-1.137c.265-.117.546-.176.843-.176.297 0 .574.059.832.176.266.11.496.262.691.457.196.188.348.414.457.68.118.258.176.531.176.82ZM19.817 19h-3.223V6.45h3.222V19ZM25.465 19h-3.2V6.45h.774l1.055 1.487a5.5 5.5 0 0 1 1.758-1.078 5.528 5.528 0 0 1 2.039-.386h2.824V9.66H27.89a2.421 2.421 0 0 0-1.723.703 2.421 2.421 0 0 0-.703 1.723V19ZM42.938 8.945l-2.344 2.356a3.085 3.085 0 0 0-.48-.88 3.103 3.103 0 0 0-1.512-1.077 3.018 3.018 0 0 0-2.157.129c-.383.18-.718.433-1.008.761-.28.32-.503.704-.667 1.149a4.244 4.244 0 0 0-.247 1.476c0 .438.082.848.246 1.23.165.384.387.72.669 1.009.289.289.624.515 1.007.68.39.163.805.245 1.242.245.313 0 .614-.043.903-.128a3.28 3.28 0 0 0 .808-.364 3.095 3.095 0 0 0 1.172-1.36l2.344 2.356c-.297.422-.64.801-1.031 1.137a6.24 6.24 0 0 1-1.254.855c-.445.235-.918.41-1.418.528-.492.125-1 .187-1.523.187a6.38 6.38 0 0 1-2.497-.492 6.646 6.646 0 0 1-2.039-1.37 6.5 6.5 0 0 1-1.37-2.028 6.169 6.169 0 0 1-.505-2.485c0-.96.168-1.859.504-2.695a6.935 6.935 0 0 1 1.371-2.18 6.56 6.56 0 0 1 2.04-1.476 5.902 5.902 0 0 1 2.495-.54c.524 0 1.036.067 1.536.2.508.133.988.328 1.441.586.461.25.883.559 1.266.926.39.367.726.789 1.008 1.265ZM47.73 19h-3.222V1.457h3.222V19ZM55.172 15.93c.125.039.25.066.375.082.125.008.25.011.375.011.312 0 .613-.043.902-.128a3.28 3.28 0 0 0 .809-.364 3.095 3.095 0 0 0 1.172-1.36l2.343 2.356c-.296.422-.64.801-1.03 1.137a6.24 6.24 0 0 1-1.255.855c-.445.235-.918.41-1.418.528-.492.125-1 .187-1.523.187a6.38 6.38 0 0 1-2.496-.492 6.378 6.378 0 0 1-2.04-1.37 6.5 6.5 0 0 1-1.37-2.087c-.336-.812-.504-1.703-.504-2.672 0-.992.168-1.898.504-2.718.336-.82.793-1.52 1.37-2.098a6.313 6.313 0 0 1 2.04-1.348 6.515 6.515 0 0 1 2.496-.48 6.327 6.327 0 0 1 2.953.727c.453.234.875.523 1.266.867a6.2 6.2 0 0 1 1.03 1.136l-6 7.23Zm1.64-6.598a1.843 1.843 0 0 0-.445-.105 4.038 4.038 0 0 0-.445-.024c-.438 0-.852.082-1.242.246a2.946 2.946 0 0 0-1.008.68 3.27 3.27 0 0 0-.668 1.078 3.791 3.791 0 0 0-.246 1.406c0 .117.004.25.011.399.016.148.036.3.06.457.03.148.066.293.105.433.039.141.09.266.152.375l3.727-4.945Z"/></svg>