<svg xmlns="http://www.w3.org/2000/svg" width="101" height="30" fill="none"><g clip-path="url(#a)"><path fill="#F60" d="m74.864 29.102 8.34-9.236-8.34-9.238h8.799l4.13 4.487 3.978-4.487h8.492l-8.3 9.2 8.414 9.274h-8.835l-4.094-4.524-4.054 4.524h-8.53ZM74.864 6.486h-9.446v4.142h9.446v6.241h-9.446v5.729h9.446v6.504H58.476V0h16.388v6.486Z"/><path fill="#652C8F" d="M51.563 0v11.91h-.076c-1.53-1.734-3.442-2.337-5.66-2.337-4.546 0-7.97 3.046-9.17 7.072C35.285 12.21 31.75 9.49 26.51 9.49c-4.256 0-7.617 1.883-9.37 4.952v-3.814H8.342v-4.14h9.6V0H.5v29.103h7.842V16.869h7.817c-.233.899-.358 1.86-.358 2.876 0 6.07 4.705 10.33 10.71 10.33 5.049 0 8.376-2.336 10.136-6.596h-6.72c-.91 1.28-1.6 1.66-3.417 1.66-2.107 0-3.924-1.813-3.924-3.961H36.27c.594 4.822 4.404 8.98 9.633 8.98a6.725 6.725 0 0 0 5.584-2.94h.076v1.884h6.913V0h-6.913ZM22.804 16.956c.436-1.848 1.89-3.057 3.706-3.057 2 0 3.38 1.171 3.743 3.057h-7.449Zm24.564 7.715c-2.548 0-4.132-2.34-4.132-4.784 0-2.612 1.378-5.124 4.132-5.124 2.856 0 3.994 2.512 3.994 5.124 0 2.477-1.206 4.784-3.994 4.784Z"/></g><defs><clipPath id="a"><path fill="#fff" d="M0 0h101v30H0z"/></clipPath></defs></svg>