<svg xmlns="http://www.w3.org/2000/svg" width="96" height="32" fill="none"><path fill="#EA4335" d="M40.927 16.41c0 4.442-3.489 7.715-7.77 7.715-4.283 0-7.772-3.273-7.772-7.715 0-4.473 3.49-7.714 7.771-7.714 4.282 0 7.771 3.241 7.771 7.714Zm-3.401 0c0-2.775-2.023-4.674-4.37-4.674s-4.37 1.899-4.37 4.674c0 2.748 2.023 4.675 4.37 4.675s4.37-1.93 4.37-4.675Z"/><path fill="#FBBC05" d="M57.692 16.41c0 4.442-3.49 7.715-7.771 7.715-4.282 0-7.771-3.273-7.771-7.715 0-4.47 3.489-7.714 7.77-7.714 4.283 0 7.772 3.241 7.772 7.714Zm-3.402 0c0-2.775-2.022-4.674-4.37-4.674-2.346 0-4.369 1.899-4.369 4.674 0 2.748 2.023 4.675 4.37 4.675s4.37-1.93 4.37-4.675Z"/><path fill="#4285F4" d="M73.758 9.162v13.85c0 5.697-3.374 8.024-7.362 8.024-3.755 0-6.015-2.5-6.867-4.546l2.962-1.227C63.018 26.517 64.31 28 66.392 28c2.553 0 4.136-1.569 4.136-4.522v-1.11h-.12c-.76.936-2.228 1.754-4.079 1.754-3.873 0-7.421-3.36-7.421-7.684 0-4.355 3.548-7.742 7.421-7.742 1.848 0 3.315.817 4.08 1.725h.118V9.165h3.231v-.003Zm-2.99 7.276c0-2.716-1.82-4.702-4.135-4.702-2.347 0-4.313 1.986-4.313 4.702 0 2.689 1.966 4.647 4.313 4.647 2.316 0 4.136-1.958 4.136-4.647Z"/><path fill="#34A853" d="M79.085 1.043v22.61h-3.318V1.042h3.318Z"/><path fill="#EA4335" d="m92.014 18.95 2.64 1.753c-.851 1.255-2.905 3.419-6.453 3.419-4.401 0-7.688-3.388-7.688-7.715 0-4.588 3.315-7.715 7.307-7.715 4.02 0 5.986 3.186 6.629 4.908l.353.877-10.356 4.27c.793 1.549 2.026 2.338 3.755 2.338 1.732 0 2.933-.849 3.814-2.136Zm-8.127-2.776 6.922-2.863c-.38-.963-1.526-1.634-2.874-1.634-1.729 0-4.135 1.52-4.048 4.497Z"/><path fill="#4285F4" d="M12.825 14.404V11.13h11.076a10.8 10.8 0 0 1 .164 1.976c0 2.456-.674 5.492-2.847 7.656-2.113 2.191-4.813 3.36-8.389 3.36C6.2 24.122.626 18.744.626 12.142.626 5.542 6.2.165 12.829.165c3.667 0 6.28 1.433 8.243 3.3l-2.32 2.31c-1.407-1.315-3.314-2.337-5.926-2.337-4.841 0-8.627 3.885-8.627 8.706 0 4.82 3.786 8.706 8.627 8.706 3.14 0 4.928-1.256 6.073-2.397.93-.925 1.54-2.247 1.781-4.052l-7.854.004Z"/></svg>